# xmcd CD database file
#
# Track frame offsets:
#	150
#	34827
#	68397
#	103502
#	133197
#	169307
#
# Disc length: 2859 seconds
#
# Revision: 0
# Processed by: cddbd v1.5.2PL0 Copyright (c) Steve Scherf et al.
# Submitted via: CDex 1.51
#
DISCID=4b0b2906
DTITLE=Various Artist - Orange Relaxation (New Age Orient Keman)
DYEAR=1900
DGENRE=New Age
TTITLE0=Hayat - Life (Mirage, Sweethart, Patience)
TTITLE1=Ask - love (To come together, Real, Why)
TTITLE2=Sevgi - Love (Sun, Sacred Spirit)
TTITLE3=Yagmur - Rain (World, Land)
TTITLE4=Imge - Image (Dream, Dream, Image)
TTITLE5=Kopru - Bridge
EXTD=
EXTT0=
EXTT1=
EXTT2=
EXTT3=
EXTT4=
EXTT5=
PLAYORDER=
